<svg xmlns="http://www.w3.org/2000/svg" viewBox="0 0 844.23 121.38"><defs><style>.a{fill:#000;}</style></defs><title>logo-white</title><path class="a" d="M49,2.85c38.08,0,54.06,28.22,54.06,58.65s-16,58.65-54.06,58.65H.39V2.85ZM26.73,24.27V98.73H49c18.36,0,27.2-15.13,27.2-37.23S67.53,24.27,49,24.27ZM140.07,2.85v117.3H113.72V2.85Zm82,82.62c0-22.95-67.83.85-67.83-49.3C154.23,13.39,175,.81,200.64.81c27.2,0,47.09,10.88,47.09,38.42l-22.95,2h-1.53c-1-13.77-10.88-19.38-23.63-19.38-11.9,0-18.7,5.27-18.7,13.6,0,22.95,68,0,68,47.77,0,28.39-23.63,38.93-48.28,38.93-24.48,0-50-9.18-50-39.44l23.63-3.06h1.36c1,16.83,12.75,21.59,25.5,21.59C211.86,101.28,222.06,97,222.06,85.47Zm67.46,34.68V24.27H254V2.85h97.58V24.27h-35.7v95.88ZM389.08,2.85V76.46c0,16.15,10.54,24.31,24.48,24.31,13.6,0,24.31-8.16,24.31-24.31V2.85h26.35v74c0,28.22-20.4,45.39-50.66,45.39-30.6,0-50.83-17.17-50.83-45.39V2.85Zm107.72,70-24.31,45.56v1.7h29.07L523.66,76H543v44.2h26.35V2.85h-52.7c-23.46,0-42,8.84-42,36.21C474.7,57.76,483.88,68.3,496.8,72.89ZM543,54.53H516.86c-9.86,0-15.3-6-15.3-15.13s5.44-15.13,15.3-15.13H543ZM635.75,2.85c33.32,0,40.12,18.36,40.12,29.75,0,8.33-2.55,20.4-17,26.18,12.24,4.25,19.21,13.43,19.21,27.54,0,15.13-10.71,33.83-40.8,33.83H582.54V2.85ZM608.89,24.27v25h26.35c7,0,13.6-5.44,13.6-13.26,0-6.29-4.25-11.73-14.11-11.73Zm27.2,74.46c10.88,0,15.13-7.14,15.13-15.3,0-7.82-5.61-13.94-16.32-13.94h-26V98.73ZM716.15,2.85v117.3H689.8V2.85Zm38.37,117.3H726.81l42.84-118h32.13l42.83,118h-28l-9.35-27.37H764ZM785.46,29.2,770.84,71.87H801.1L786.48,29.2Z" transform="translate(-0.39 -0.81)"/></svg>